<svg xmlns="http://www.w3.org/2000/svg" xmlns:xlink="http://www.w3.org/1999/xlink" width="1080" zoomAndPan="magnify" viewBox="0 0 810 809.999993" height="1080" preserveAspectRatio="xMidYMid meet" version="1.0"><defs><clipPath id="cae16e67da"><path d="M 0 4.710938 L 805.289062 4.710938 L 805.289062 810 L 0 810 Z M 0 4.710938 " clip-rule="nonzero"/></clipPath><clipPath id="1d39153c63"><path d="M 402.644531 4.710938 C 180.269531 4.710938 0 184.980469 0 407.355469 C 0 629.730469 180.269531 810 402.644531 810 C 625.019531 810 805.289062 629.730469 805.289062 407.355469 C 805.289062 184.980469 625.019531 4.710938 402.644531 4.710938 Z M 402.644531 4.710938 " clip-rule="nonzero"/></clipPath><clipPath id="a692c1ef37"><path d="M 105.039062 180 L 705 180 L 705 635 L 105.039062 635 Z M 105.039062 180 " clip-rule="nonzero"/></clipPath></defs><g clip-path="url(#cae16e67da)"><g clip-path="url(#1d39153c63)"><path fill="#ffffff" d="M 0 4.710938 L 805.289062 4.710938 L 805.289062 810 L 0 810 Z M 0 4.710938 " fill-opacity="1" fill-rule="nonzero"/></g></g><g clip-path="url(#a692c1ef37)"><path fill="#0f2a1d" d="M 704.957031 593.289062 L 704.957031 231.222656 C 697.722656 231.222656 690.652344 231.332031 683.671875 231.492188 L 683.671875 206.445312 L 676.6875 206.445312 C 668.339844 206.445312 660.238281 206.628906 652.273438 206.890625 L 652.273438 180.195312 L 645.277344 180.195312 C 487.738281 180.195312 406.082031 243.660156 405.25 244.308594 L 404.992188 244.511719 L 404.730469 244.304688 C 403.925781 243.660156 322.25 180.195312 164.71875 180.195312 L 157.734375 180.195312 L 157.734375 206.894531 C 149.757812 206.628906 141.652344 206.445312 133.304688 206.445312 L 126.3125 206.445312 L 126.3125 231.5 C 119.339844 231.335938 112.269531 231.222656 105.039062 231.222656 L 105.039062 593.289062 C 303.011719 593.289062 405 634.3125 405 634.3125 C 405 634.3125 506.984375 593.292969 704.957031 593.289062 Z M 140.292969 219.714844 C 146.214844 219.769531 152.007812 219.914062 157.734375 220.105469 L 157.734375 543.1875 C 157.707031 544.101562 157.863281 544.917969 158.132812 545.417969 C 159.339844 548 160.058594 547.960938 160.390625 548.382812 C 161.488281 549.136719 161.339844 548.941406 161.507812 549.0625 C 161.578125 549.097656 161.59375 549.097656 161.59375 549.097656 L 171.710938 553.894531 L 171.710938 549.84375 C 244.996094 550.742188 300.574219 565.703125 338.113281 580.582031 C 345.082031 583.34375 351.402344 586.105469 357.117188 588.777344 C 314.207031 577.332031 241.679688 563.453125 140.292969 562.835938 Z M 338.113281 224.207031 C 357.449219 231.878906 371.996094 239.535156 381.632812 245.234375 C 386.457031 248.089844 390.0625 250.441406 392.4375 252.070312 C 392.746094 252.277344 393.027344 252.484375 393.300781 252.671875 L 393.300781 592.957031 C 366.28125 576.234375 291.644531 538.050781 171.710938 536.613281 L 171.710938 193.472656 C 244.996094 194.375 300.574219 209.328125 338.113281 224.207031 Z M 638.292969 193.472656 L 638.292969 536.613281 C 518.363281 538.050781 443.71875 576.222656 416.703125 592.949219 L 416.703125 252.671875 C 431.082031 242.636719 505.886719 195.105469 638.292969 193.472656 Z M 669.707031 562.835938 C 568.285156 563.453125 495.75 577.339844 452.84375 588.789062 C 490.070312 571.402344 553.941406 550.0625 643.636719 549.800781 L 652.265625 553.886719 L 652.265625 220.113281 C 657.988281 219.917969 663.78125 219.769531 669.707031 219.714844 Z M 669.707031 562.835938 " fill-opacity="1" fill-rule="nonzero"/></g></svg>