<svg xmlns="http://www.w3.org/2000/svg" xmlns:xlink="http://www.w3.org/1999/xlink" width="1080" zoomAndPan="magnify" viewBox="0 0 810 809.999993" height="1080" preserveAspectRatio="xMidYMid meet" version="1.0"><defs><clipPath id="e44db293b6"><path d="M 87.257812 237 L 348 237 L 348 629.09375 L 87.257812 629.09375 Z M 87.257812 237 " clip-rule="nonzero"/></clipPath><clipPath id="5765053263"><path d="M 462 237 L 722.507812 237 L 722.507812 629.09375 L 462 629.09375 Z M 462 237 " clip-rule="nonzero"/></clipPath></defs><g clip-path="url(#e44db293b6)"><path fill="#0f2a1d" d="M 87.296875 629.386719 C 127.050781 615.019531 223.085938 589.609375 347.710938 618.617188 C 308.316406 596.542969 239.667969 576.4375 127.285156 594.738281 L 111.3125 597.34375 L 111.3125 237.277344 C 104.855469 237.226562 96.300781 237.421875 87.296875 237.828125 L 87.296875 629.386719 " fill-opacity="1" fill-rule="nonzero"/></g><path fill="#0f2a1d" d="M 391.242188 614.59375 L 391.242188 267.402344 C 379.933594 252.457031 315.464844 180.902344 138.839844 206.246094 L 138.839844 565.191406 C 165.289062 561.550781 189.449219 559.949219 211.433594 559.949219 C 307.671875 559.949219 362.785156 590.523438 391.242188 614.59375 " fill-opacity="1" fill-rule="nonzero"/><g clip-path="url(#5765053263)"><path fill="#0f2a1d" d="M 722.691406 629.386719 L 722.691406 237.828125 C 713.683594 237.429688 705.128906 237.234375 698.679688 237.277344 L 698.679688 597.34375 L 682.703125 594.738281 C 570.132812 576.378906 501.480469 596.535156 462.132812 618.652344 C 586.792969 589.589844 682.929688 615.019531 722.691406 629.386719 " fill-opacity="1" fill-rule="nonzero"/></g><path fill="#0f2a1d" d="M 671.152344 565.191406 L 671.152344 206.246094 C 494.441406 180.816406 430.21875 252.296875 418.769531 267.410156 L 418.769531 614.59375 C 453.734375 585.039062 528.980469 545.699219 671.152344 565.191406 " fill-opacity="1" fill-rule="nonzero"/></svg>